<mxfile host="app.diagrams.net" agent="Mozilla/5.0 (Windows NT 10.0; Win64; x64) AppleWebKit/537.36 (KHTML, like Gecko) Chrome/129.0.0.0 Safari/537.36" version="24.8.0">
  <diagram name="Страница — 1" id="rC4nd_1I9QzMeOTx6rWk">
    <mxGraphModel dx="1430" dy="763" grid="1" gridSize="10" guides="1" tooltips="1" connect="1" arrows="1" fold="1" page="1" pageScale="1" pageWidth="827" pageHeight="1169" math="0" shadow="0">
      <root>
        <mxCell id="0" />
        <mxCell id="1" parent="0" />
        <mxCell id="9tQMEO2GIM7Mm1Nx14kl-2" value="" style="shape=flexArrow;endArrow=classic;html=1;rounded=0;" edge="1" parent="1">
          <mxGeometry width="50" height="50" relative="1" as="geometry">
            <mxPoint x="404.66" y="120" as="sourcePoint" />
            <mxPoint x="404.66" y="200" as="targetPoint" />
          </mxGeometry>
        </mxCell>
        <mxCell id="9tQMEO2GIM7Mm1Nx14kl-4" value="*Старт*" style="text;html=1;align=center;verticalAlign=middle;whiteSpace=wrap;rounded=0;" vertex="1" parent="1">
          <mxGeometry x="420" y="140" width="60" height="30" as="geometry" />
        </mxCell>
        <mxCell id="9tQMEO2GIM7Mm1Nx14kl-5" value="Зарегистрировался?" style="rhombus;whiteSpace=wrap;html=1;" vertex="1" parent="1">
          <mxGeometry x="330" y="200" width="150" height="140" as="geometry" />
        </mxCell>
        <mxCell id="9tQMEO2GIM7Mm1Nx14kl-6" value="Готовится к теоретическому экзамену" style="rounded=1;whiteSpace=wrap;html=1;" vertex="1" parent="1">
          <mxGeometry x="210" y="370" width="120" height="60" as="geometry" />
        </mxCell>
        <mxCell id="9tQMEO2GIM7Mm1Nx14kl-7" value="" style="endArrow=classic;html=1;rounded=0;" edge="1" parent="1" source="9tQMEO2GIM7Mm1Nx14kl-5" target="9tQMEO2GIM7Mm1Nx14kl-6">
          <mxGeometry width="50" height="50" relative="1" as="geometry">
            <mxPoint x="390" y="480" as="sourcePoint" />
            <mxPoint x="440" y="430" as="targetPoint" />
          </mxGeometry>
        </mxCell>
        <mxCell id="9tQMEO2GIM7Mm1Nx14kl-8" value="*Конец*" style="rounded=1;whiteSpace=wrap;html=1;" vertex="1" parent="1">
          <mxGeometry x="560" y="240" width="120" height="60" as="geometry" />
        </mxCell>
        <mxCell id="9tQMEO2GIM7Mm1Nx14kl-9" value="" style="endArrow=classic;html=1;rounded=0;" edge="1" parent="1" source="9tQMEO2GIM7Mm1Nx14kl-5" target="9tQMEO2GIM7Mm1Nx14kl-8">
          <mxGeometry width="50" height="50" relative="1" as="geometry">
            <mxPoint x="390" y="480" as="sourcePoint" />
            <mxPoint x="440" y="430" as="targetPoint" />
          </mxGeometry>
        </mxCell>
        <mxCell id="9tQMEO2GIM7Mm1Nx14kl-10" value="Да" style="text;html=1;align=center;verticalAlign=middle;whiteSpace=wrap;rounded=0;" vertex="1" parent="1">
          <mxGeometry x="290" y="310" width="60" height="30" as="geometry" />
        </mxCell>
        <mxCell id="9tQMEO2GIM7Mm1Nx14kl-11" value="Нет" style="text;html=1;align=center;verticalAlign=middle;whiteSpace=wrap;rounded=0;" vertex="1" parent="1">
          <mxGeometry x="480" y="240" width="60" height="30" as="geometry" />
        </mxCell>
        <mxCell id="9tQMEO2GIM7Mm1Nx14kl-12" value="Сдача теоретического экзамена" style="rounded=1;whiteSpace=wrap;html=1;" vertex="1" parent="1">
          <mxGeometry x="210" y="470" width="120" height="60" as="geometry" />
        </mxCell>
        <mxCell id="9tQMEO2GIM7Mm1Nx14kl-13" value="" style="endArrow=classic;html=1;rounded=0;" edge="1" parent="1" source="9tQMEO2GIM7Mm1Nx14kl-6" target="9tQMEO2GIM7Mm1Nx14kl-12">
          <mxGeometry width="50" height="50" relative="1" as="geometry">
            <mxPoint x="390" y="550" as="sourcePoint" />
            <mxPoint x="440" y="500" as="targetPoint" />
          </mxGeometry>
        </mxCell>
        <mxCell id="9tQMEO2GIM7Mm1Nx14kl-14" value="Сдал?" style="rhombus;whiteSpace=wrap;html=1;" vertex="1" parent="1">
          <mxGeometry x="230" y="580" width="80" height="80" as="geometry" />
        </mxCell>
        <mxCell id="9tQMEO2GIM7Mm1Nx14kl-15" value="" style="endArrow=classic;html=1;rounded=0;" edge="1" parent="1" source="9tQMEO2GIM7Mm1Nx14kl-12" target="9tQMEO2GIM7Mm1Nx14kl-14">
          <mxGeometry width="50" height="50" relative="1" as="geometry">
            <mxPoint x="390" y="550" as="sourcePoint" />
            <mxPoint x="440" y="500" as="targetPoint" />
          </mxGeometry>
        </mxCell>
        <mxCell id="9tQMEO2GIM7Mm1Nx14kl-16" value="" style="endArrow=classic;html=1;rounded=0;" edge="1" parent="1" source="9tQMEO2GIM7Mm1Nx14kl-14" target="9tQMEO2GIM7Mm1Nx14kl-6">
          <mxGeometry width="50" height="50" relative="1" as="geometry">
            <mxPoint x="140" y="610" as="sourcePoint" />
            <mxPoint x="140" y="400" as="targetPoint" />
            <Array as="points">
              <mxPoint x="140" y="620" />
              <mxPoint x="140" y="400" />
            </Array>
          </mxGeometry>
        </mxCell>
        <mxCell id="9tQMEO2GIM7Mm1Nx14kl-17" value="Нет" style="text;html=1;align=center;verticalAlign=middle;whiteSpace=wrap;rounded=0;" vertex="1" parent="1">
          <mxGeometry x="170" y="590" width="60" height="30" as="geometry" />
        </mxCell>
        <mxCell id="9tQMEO2GIM7Mm1Nx14kl-18" value="Готовится к практическому экзамену" style="rounded=1;whiteSpace=wrap;html=1;" vertex="1" parent="1">
          <mxGeometry x="370" y="590" width="120" height="60" as="geometry" />
        </mxCell>
        <mxCell id="9tQMEO2GIM7Mm1Nx14kl-19" value="" style="endArrow=classic;html=1;rounded=0;" edge="1" parent="1" source="9tQMEO2GIM7Mm1Nx14kl-14" target="9tQMEO2GIM7Mm1Nx14kl-18">
          <mxGeometry width="50" height="50" relative="1" as="geometry">
            <mxPoint x="390" y="550" as="sourcePoint" />
            <mxPoint x="440" y="500" as="targetPoint" />
          </mxGeometry>
        </mxCell>
        <mxCell id="9tQMEO2GIM7Mm1Nx14kl-20" value="Да" style="text;html=1;align=center;verticalAlign=middle;whiteSpace=wrap;rounded=0;" vertex="1" parent="1">
          <mxGeometry x="300" y="590" width="60" height="30" as="geometry" />
        </mxCell>
        <mxCell id="9tQMEO2GIM7Mm1Nx14kl-21" value="Сдача практического экзамена" style="rounded=1;whiteSpace=wrap;html=1;" vertex="1" parent="1">
          <mxGeometry x="560" y="590" width="120" height="60" as="geometry" />
        </mxCell>
        <mxCell id="9tQMEO2GIM7Mm1Nx14kl-22" value="" style="endArrow=classic;html=1;rounded=0;" edge="1" parent="1" source="9tQMEO2GIM7Mm1Nx14kl-18" target="9tQMEO2GIM7Mm1Nx14kl-21">
          <mxGeometry width="50" height="50" relative="1" as="geometry">
            <mxPoint x="390" y="550" as="sourcePoint" />
            <mxPoint x="440" y="500" as="targetPoint" />
          </mxGeometry>
        </mxCell>
        <mxCell id="9tQMEO2GIM7Mm1Nx14kl-23" value="Сдал" style="rhombus;whiteSpace=wrap;html=1;" vertex="1" parent="1">
          <mxGeometry x="580" y="710" width="80" height="80" as="geometry" />
        </mxCell>
        <mxCell id="9tQMEO2GIM7Mm1Nx14kl-24" value="" style="endArrow=classic;html=1;rounded=0;" edge="1" parent="1" source="9tQMEO2GIM7Mm1Nx14kl-21" target="9tQMEO2GIM7Mm1Nx14kl-23">
          <mxGeometry width="50" height="50" relative="1" as="geometry">
            <mxPoint x="390" y="690" as="sourcePoint" />
            <mxPoint x="440" y="640" as="targetPoint" />
          </mxGeometry>
        </mxCell>
        <mxCell id="9tQMEO2GIM7Mm1Nx14kl-25" value="" style="endArrow=classic;html=1;rounded=0;" edge="1" parent="1" source="9tQMEO2GIM7Mm1Nx14kl-23" target="9tQMEO2GIM7Mm1Nx14kl-18">
          <mxGeometry width="50" height="50" relative="1" as="geometry">
            <mxPoint x="390" y="690" as="sourcePoint" />
            <mxPoint x="430" y="750" as="targetPoint" />
            <Array as="points">
              <mxPoint x="430" y="750" />
            </Array>
          </mxGeometry>
        </mxCell>
        <mxCell id="9tQMEO2GIM7Mm1Nx14kl-26" value="Нет" style="text;html=1;align=center;verticalAlign=middle;whiteSpace=wrap;rounded=0;" vertex="1" parent="1">
          <mxGeometry x="480" y="720" width="60" height="30" as="geometry" />
        </mxCell>
        <mxCell id="9tQMEO2GIM7Mm1Nx14kl-27" value="Получение водительский прав" style="rounded=1;whiteSpace=wrap;html=1;" vertex="1" parent="1">
          <mxGeometry x="560" y="410" width="120" height="60" as="geometry" />
        </mxCell>
        <mxCell id="9tQMEO2GIM7Mm1Nx14kl-28" value="" style="endArrow=classic;html=1;rounded=0;" edge="1" parent="1" source="9tQMEO2GIM7Mm1Nx14kl-23" target="9tQMEO2GIM7Mm1Nx14kl-27">
          <mxGeometry width="50" height="50" relative="1" as="geometry">
            <mxPoint x="390" y="550" as="sourcePoint" />
            <mxPoint x="750" y="410" as="targetPoint" />
            <Array as="points">
              <mxPoint x="750" y="750" />
              <mxPoint x="750" y="440" />
            </Array>
          </mxGeometry>
        </mxCell>
        <mxCell id="9tQMEO2GIM7Mm1Nx14kl-29" value="" style="endArrow=classic;html=1;rounded=0;" edge="1" parent="1" source="9tQMEO2GIM7Mm1Nx14kl-27" target="9tQMEO2GIM7Mm1Nx14kl-8">
          <mxGeometry width="50" height="50" relative="1" as="geometry">
            <mxPoint x="390" y="550" as="sourcePoint" />
            <mxPoint x="440" y="500" as="targetPoint" />
          </mxGeometry>
        </mxCell>
      </root>
    </mxGraphModel>
  </diagram>
</mxfile>
